<svg width="150" height="121" viewBox="0 0 150 121" fill="none" xmlns="http://www.w3.org/2000/svg">
<rect x="19" y="1" width="4" height="120" fill="#0095FF"/>
<rect width="4" height="34" transform="matrix(-1 0 0 1 32 11)" fill="#0095FF"/>
<rect width="4" height="43" transform="matrix(-1 0 0 1 42 18)" fill="#0095FF"/>
<rect width="4" height="24.1784" transform="matrix(-0.656735 -0.754121 -0.754121 0.656735 40.8605 50.5859)" fill="#0095FF"/>
<rect width="4.32394" height="26.4939" transform="matrix(-0.697929 -0.716167 -0.716167 0.697929 42 61)" fill="#0095FF"/>
<rect width="4.05804" height="24.8228" transform="matrix(-0.670085 -0.742284 -0.742284 0.670085 41.1448 38.0122)" fill="#0095FF"/>
<rect x="10" y="11" width="4" height="34" fill="#0095FF"/>
<rect y="18" width="4" height="43" fill="#0095FF"/>
<rect x="1.13953" y="50.5859" width="4" height="24.1784" transform="rotate(-48.9486 1.13953 50.5859)" fill="#0095FF"/>
<rect y="61" width="4.32394" height="26.4939" transform="rotate(-45.7389 0 61)" fill="#0095FF"/>
<rect x="0.855225" y="38.0122" width="4.05804" height="24.8228" transform="rotate(-47.9264 0.855225 38.0122)" fill="#0095FF"/>
<rect x="127" y="1" width="4" height="120" fill="#0095FF"/>
<rect width="4" height="34" transform="matrix(-1 0 0 1 140 11)" fill="#0095FF"/>
<rect width="4" height="43" transform="matrix(-1 0 0 1 150 18)" fill="#0095FF"/>
<rect width="4" height="24.1784" transform="matrix(-0.656735 -0.754121 -0.754121 0.656735 148.86 50.5859)" fill="#0095FF"/>
<rect width="4.32394" height="26.4939" transform="matrix(-0.697929 -0.716167 -0.716167 0.697929 150 61)" fill="#0095FF"/>
<rect width="4.05804" height="24.8228" transform="matrix(-0.670085 -0.742284 -0.742284 0.670085 149.145 38.0122)" fill="#0095FF"/>
<rect x="118" y="11" width="4" height="34" fill="#0095FF"/>
<rect x="108" y="18" width="4" height="43" fill="#0095FF"/>
<rect x="109.14" y="50.5859" width="4" height="24.1784" transform="rotate(-48.9486 109.14 50.5859)" fill="#0095FF"/>
<rect x="108" y="61" width="4.32394" height="26.4939" transform="rotate(-45.7389 108 61)" fill="#0095FF"/>
<rect x="108.855" y="38.0122" width="4.05804" height="24.8228" transform="rotate(-47.9264 108.855 38.0122)" fill="#0095FF"/>
<rect x="73" width="4" height="120" fill="#0095FF"/>
<rect width="4" height="34" transform="matrix(-1 0 0 1 86 10)" fill="#0095FF"/>
<rect width="4" height="43" transform="matrix(-1 0 0 1 96 17)" fill="#0095FF"/>
<rect width="4" height="24.1784" transform="matrix(-0.656735 -0.754121 -0.754121 0.656735 94.8605 49.5859)" fill="#0095FF"/>
<rect width="4.32394" height="26.4939" transform="matrix(-0.697929 -0.716167 -0.716167 0.697929 96 60)" fill="#0095FF"/>
<rect width="4.05804" height="24.8228" transform="matrix(-0.670085 -0.742284 -0.742284 0.670085 95.1448 37.0122)" fill="#0095FF"/>
<rect x="64" y="10" width="4" height="34" fill="#0095FF"/>
<rect x="54" y="17" width="4" height="43" fill="#0095FF"/>
<rect x="55.1395" y="49.5859" width="4" height="24.1784" transform="rotate(-48.9486 55.1395 49.5859)" fill="#0095FF"/>
<rect x="54" y="60" width="4.32394" height="26.4939" transform="rotate(-45.7389 54 60)" fill="#0095FF"/>
<rect x="54.8552" y="37.0122" width="4.05804" height="24.8228" transform="rotate(-47.9264 54.8552 37.0122)" fill="#0095FF"/>
</svg>
